# xmcd
#
# Track frame offsets:
#	150
#	15413
#	47349
#	69609
#	94375
#	119967
#	148463
#	176669
#	201148
#	227646
#	247226
#	273522
#	293041
#	309451
#	328202
#
# Disc length: 4618
#
# Revision: 2
# Processed by: cddbd v1.5.1PL0 Copyright (c) Steve Scherf et al.
# Submitted via: CDex 1.51
# Normalized: r1:TDELIM( - )
#
DISCID=ee12080f
DTITLE=KLCC - Praise and Worship Disc 2
DYEAR=1900
DGENRE=Christian
TTITLE0=Mary Mary - Shackles
TTITLE1=Fred Hammond - Glory To Glory To Glory
TTITLE2=Fred Hammond - Oh Give Thanks
TTITLE3=Isreal Houghton - Not Unto Us
TTITLE4=Isreal Houghton - Who Is Like The Lord
TTITLE5=Isreal Houghton - Your Latter Will Be Greater
TTITLE6=Kurt Carr - Sanctuary
TTITLE7=Kurt Carr - Lord Our God Is Strong And Mighty
TTITLE8=Kurt Carr - We Declare War
TTITLE9=Shirley Cesaer - Takin' It Back
TTITLE10=Shirley Cesaer - Waymaker
TTITLE11=Shirley Cesaer - Yes Lord Yes
TTITLE12=Clarence McClendon - I Came To Magnify The Lord
TTITLE13=Gary Oliver - House Of The Lord
TTITLE14=Terry Butler - Cry Of My Heart
EXTD=
EXTT0=
EXTT1=
EXTT2=
EXTT3=
EXTT4=
EXTT5=
EXTT6=
EXTT7=
EXTT8=
EXTT9=
EXTT10=
EXTT11=
EXTT12=
EXTT13=
EXTT14=
PLAYORDER=
